<svg width="100" height="100" viewBox="0 0 100 100" fill="none" xmlns="http://www.w3.org/2000/svg">
<path d="M7.46854 0C6.54947 0 5.86468 0.74896 5.94623 1.66436L13.6945 88.5741C13.776 89.4895 14.5671 90.4397 15.4531 90.6856L48.3328 99.8148C49.2185 100.061 50.6676 100.061 51.5536 99.8155L84.5332 90.6713C85.4188 90.4256 86.2109 89.4755 86.2925 88.5604L94.0534 1.66436C94.1357 0.74896 93.4502 0 92.5311 0H7.46854ZM77.5526 19.9325C77.4794 20.749 77.3527 22.1663 77.2712 23.0817L77.067 25.362C76.9848 26.2771 76.8678 27.5858 76.806 28.27C76.7445 28.9544 76.686 29.5142 76.6753 29.5142C76.6649 29.5142 75.9043 29.5142 74.9852 29.5142H51.6709C50.7518 29.5142 49.9921 29.5142 49.9821 29.5142C49.9721 29.5142 49.2118 29.5142 48.2927 29.5142H36.0139C35.0948 29.5142 34.41 30.2632 34.4916 31.1786L35.2078 39.1845C35.2893 40.0996 36.1085 40.8489 37.0276 40.8489H48.293C49.2121 40.8489 49.9724 40.8489 49.9825 40.8489C49.9925 40.8489 50.7521 40.8489 51.6712 40.8489H71.0349C71.9539 40.8489 73.3763 40.8489 74.1955 40.8489C75.014 40.8489 75.6235 41.517 75.5494 42.3334C75.4748 43.1499 75.3475 44.5676 75.2659 45.4827L72.9629 71.2929C72.8807 72.2083 72.7768 73.3777 72.732 73.8917C72.6862 74.4054 71.9245 75.0266 71.0389 75.2723L51.6104 80.6594C50.7247 80.9047 49.9888 81.1079 49.9751 81.1109C49.9614 81.1139 49.2258 80.9151 48.3398 80.6694L28.8906 75.2726C28.0049 75.027 27.2135 74.0768 27.132 73.1614L25.8801 59.1097C25.7985 58.1943 26.484 57.4453 27.403 57.4453H29.178C30.0971 57.4453 31.601 57.4453 32.5201 57.4453H35.167C36.0861 57.4453 36.9046 58.1943 36.9868 59.1097L37.4777 64.6104C37.5593 65.5258 38.3517 66.4706 39.2393 66.7102L48.3368 69.167C49.2238 69.4066 49.953 69.6028 49.9571 69.6028C49.9611 69.6028 50.69 69.4063 51.5773 69.1666L60.6911 66.7039C61.5781 66.4642 62.3712 65.5191 62.4534 64.604L63.4417 53.5832C63.5239 52.6678 62.8391 51.9189 61.92 51.9189H51.6712C50.7521 51.9189 49.9925 51.9189 49.9825 51.9189C49.9724 51.9189 49.2121 51.9189 48.293 51.9189H26.9074C25.9883 51.9189 25.1699 51.1696 25.0883 50.2545L22.6633 23.0814C22.5818 22.166 22.4551 20.749 22.3819 19.9322C22.3094 19.1157 23.0015 18.4476 23.9206 18.4476H48.293C49.2121 18.4476 49.9724 18.4476 49.9825 18.4476C49.9925 18.4476 50.7521 18.4476 51.6712 18.4476H76.0142C76.933 18.4476 77.6255 19.1157 77.5526 19.9325Z" fill="#7510F7"/>
</svg>
