<svg width="100" height="100" viewBox="0 0 100 100" fill="none" xmlns="http://www.w3.org/2000/svg">
<path d="M94.1643 67.522L94.1642 67.5223C93.0128 70.4219 91.5843 73.1819 89.9097 75.7675L89.9087 75.7691C87.8227 78.995 85.3543 81.9521 82.5698 84.5738L82.5686 84.575C80.9375 86.1128 79.2002 87.5341 77.366 88.8293L77.3658 88.8294C69.6312 94.2921 60.1955 97.5 50 97.5C39.8045 97.5 30.3688 94.2921 22.634 88.8294L22.6337 88.8292C20.3372 87.2078 18.1931 85.391 16.2259 83.3986L16.2243 83.397C7.73596 74.8155 2.5 63.0197 2.5 50C2.5 36.9803 7.73596 25.1845 16.2243 16.603L16.2252 16.6021C18.3093 14.4929 20.5914 12.5789 23.0407 10.888L23.0414 10.8875C30.6983 5.59739 39.9828 2.5 50 2.5C60.0172 2.5 69.3017 5.59739 76.9586 10.8875L76.961 10.8892C78.8301 12.1773 80.6015 13.5995 82.263 15.1409L82.266 15.1437C85.1761 17.8347 87.7471 20.8885 89.909 24.2311L89.9099 24.2325C91.5845 26.8181 93.013 29.5781 94.1644 32.4777L94.1645 32.4779C96.3168 37.8971 97.5 43.8067 97.5 50C97.5 56.1933 96.3168 62.1029 94.1643 67.522Z" fill="white" stroke="#7510F7" stroke-width="5"/>
<path d="M75.8648 54.4147L75.8648 54.4147C72.9518 53.4436 70.1926 52.3648 68.3013 50.9464C67.3281 50.2164 66.4147 49.2741 65.8962 48.0408C65.3501 46.7418 65.3449 45.364 65.7942 44.0157L75.8648 54.4147ZM75.8648 54.4147C80.9242 56.1012 83.4126 60.3155 82.9514 63.3587C82.6236 65.5222 82.0588 67.5085 80.606 68.9988C79.208 70.433 76.5786 71.8102 71.2279 71.8102C66.5791 71.8102 63.528 69.5865 61.5709 67.1862M75.8648 54.4147L76.6554 52.043C82.5006 53.9915 86.1191 59.1409 85.4232 63.7333C84.7273 68.3256 82.7789 74.3102 71.2279 74.3102C65.4188 74.3102 61.6864 71.3887 59.411 68.4842L61.5709 67.1862M61.5709 67.1862L63.769 65.8653C63.942 66.0829 64.1308 66.3065 64.3355 66.531C65.6365 67.958 67.8568 69.7126 70.9494 69.7126C73.208 69.7126 75.3803 69.3581 76.9949 68.0723C78.7523 66.673 79.2945 64.6433 79.2945 62.62C79.2945 61.3474 78.7268 60.3361 78.087 59.6092C77.4696 58.9078 76.6866 58.3526 75.9435 57.9045C74.7561 57.1885 73.234 56.4994 71.7907 55.846C71.4639 55.6981 71.1412 55.5519 70.8272 55.4077C69.0161 54.5759 67.3325 53.7407 65.9913 52.768C64.6481 51.7939 63.8894 50.8524 63.5936 49.9058C62.7193 47.1078 62.9027 43.7749 64.1985 41.3334C65.395 39.079 67.5992 37.4208 71.467 37.697C74.9903 37.9487 77.4205 39.1746 79.0531 40.484L77.0311 41.945C75.71 40.6414 73.9616 39.9747 72.2919 39.8912C69.7895 39.7661 66.8075 40.9753 65.7943 44.0156L61.5709 67.1862Z" fill="white" stroke="#7510F7" stroke-width="5"/>
<path d="M51.4705 38.3994V38.4452V38.4924V38.5399V38.5878V38.636V38.6846V38.7336V38.7829V38.8326V38.8826V38.9329V38.9836V39.0346V39.086V39.1377V39.1897V39.2421V39.2948V39.3479V39.4012V39.4549V39.5089V39.5633V39.6179V39.6729V39.7282V39.7838V39.8397V39.8959V39.9524V40.0092V40.0664V40.1238V40.1815V40.2396V40.2979V40.3565V40.4154V40.4746V40.5341V40.5938V40.6539V40.7142V40.7748V40.8357V40.8969V40.9583V41.02V41.082V41.1442V41.2067V41.2695V41.3325V41.3958V41.4594V41.5232V41.5872V41.6515V41.716V41.7808V41.8459V41.9112V41.9767V42.0424V42.1084V42.1747V42.2411V42.3078V42.3748V42.4419V42.5093V42.5769V42.6447V42.7127V42.781V42.8494V42.9181V42.987V43.0561V43.1254V43.1949V43.2646V43.3345V43.4046V43.4749V43.5454V43.6161V43.687V43.7581V43.8293V43.9007V43.9724V44.0442V44.1161V44.1883V44.2606V44.3331V44.4058V44.4786V44.5516V44.6248V44.6981V44.7716V44.8452V44.919V44.993V45.0671V45.1414V45.2158V45.2903V45.365V45.4398V45.5148V45.5899V45.6652V45.7406V45.8161V45.8917V45.9675V46.0434V46.1194V46.1955V46.2718V46.3482V46.4247V46.5013V46.578V46.6548V46.7318V46.8088V46.8859V46.9632V47.0405V47.118V47.1955V47.2731V47.3509V47.4287V47.5066V47.5846V47.6626V47.7408V47.819V47.8973V47.9757V48.0541V48.1327V48.2112V48.2899V48.3686V48.4474V48.5263V48.6052V48.6841V48.7632V48.8422V48.9214V49.0005V49.0798V49.159V49.2383V49.3177V49.3971V49.4765V49.5559V49.6354V49.715V49.7945V49.8741V49.9537V50.0333V50.113V50.1926V50.2723V50.352V50.4317V50.5114V50.5912V50.6709V50.7506V50.8304V50.9101V50.9899V51.0696V51.1493V51.2291V51.3088V51.3885V51.4682V51.5478V51.6275V51.7071V51.7868V51.8663V51.9459V52.0255V52.105V52.1844V52.2639V52.3433V52.4227V52.502V52.5813V52.6605V52.7397V52.8189V52.898V52.977V53.056V53.135V53.2139V53.2927V53.3714V53.4501V53.5288V53.6073V53.6858V53.7642V53.8426V53.9209V53.9991V54.0772V54.1552V54.2331V54.311V54.3888V54.4665V54.5441V54.6215V54.6989V54.7762V54.8535V54.9305V55.0075V55.0844V55.1612V55.2379V55.3144V55.3909V55.4672V55.5434V55.6195V55.6955V55.7713V55.847V55.9226V55.9981V56.0734V56.1486V56.2236V56.2986V56.3733V56.448V56.5224V56.5968V56.671V56.745V56.8189V56.8926V56.9662V57.0396V57.1129V57.186V57.2589V57.3317V57.4043V57.4767V57.549V57.621V57.6929V57.7647V57.8362V57.9076V57.9787V58.0497V58.1205V58.1911V58.2615V58.3317V58.4018V58.4716V58.5412V58.6106V58.6798V58.7488V58.8176V58.8862V58.9546V59.0228V59.0907V59.1584V59.2259V59.2932V59.3602V59.4271V59.4937V59.56V59.6262V59.6921V59.7577V59.8231V59.8883V59.9532V60.0179V60.0824V60.1466V60.2105V60.2742V60.3376V60.4008V60.4637V60.5264V60.5888V60.6509V60.7127V60.7743V60.8356V60.8967V60.9575V61.0179V61.0782V61.1381V61.1977V61.2571V61.3162V61.3749V61.4334V61.4916V61.5495V61.6071V61.6644V61.7214V61.7781V61.8345V61.8906V61.9464V62.0018V62.057V62.1118V62.1663V62.2205V62.2744V62.3279V62.3812V62.4341V62.4866V62.5389V62.5908V62.6423V62.6935V62.7444V62.795V62.8452V62.895V62.9445V62.9937V63.0425V63.0909V63.139V63.1867V63.2341V63.2811V63.3278V63.374V63.42V63.4655V63.5107V63.5555V63.5999V63.6439V63.6876V63.7309V63.7737V63.8163V63.8584V63.9001V63.9414V63.9824V64.0229V64.0631V64.1028V64.1421V64.1811V64.2196V64.2577V64.2954V64.3327V64.3696V64.4061V64.4421V64.4778V64.513V64.5478V64.5821V64.616V64.6495V64.6826V64.7152V64.7474V64.7792V64.8105V64.8413V64.8717V64.9017V64.9312V64.9603V64.9889V65.0171V65.0448V65.0721V65.0989V65.1252C51.4705 67.6842 48.1725 72.3121 40.3512 71.8156C36.6407 71.5799 34.724 70.1528 33.7163 68.9874C33.4999 68.7371 33.318 68.4898 33.1656 68.2558L35.6448 66.5851C36.5072 67.6674 37.921 68.9739 39.9808 69.3858C41.986 69.7869 44.096 69.4071 45.7546 68.2184C47.4643 66.993 48.5379 65.013 48.5379 62.6201V62.6011V62.5817V62.5618V62.5414V62.5206V62.4993V62.4775V62.4554V62.4327V62.4096V62.3861V62.3621V62.3377V62.3129V62.2876V62.2618V62.2357V62.2091V62.1821V62.1546V62.1267V62.0984V62.0697V62.0406V62.011V61.981V61.9506V61.9198V61.8886V61.857V61.825V61.7925V61.7597V61.7264V61.6928V61.6588V61.6244V61.5895V61.5543V61.5187V61.4828V61.4464V61.4096V61.3725V61.335V61.2971V61.2588V61.2202V61.1812V61.1418V61.1021V61.062V61.0215V60.9807V60.9395V60.8979V60.856V60.8138V60.7712V60.7282V60.6849V60.6413V60.5973V60.5529V60.5083V60.4632V60.4179V60.3722V60.3262V60.2798V60.2332V60.1862V60.1389V60.0912V60.0432V59.995V59.9464V59.8975V59.8482V59.7987V59.7489V59.6987V59.6482V59.5975V59.5464V59.4951V59.4434V59.3915V59.3392V59.2867V59.2339V59.1808V59.1274V59.0737V59.0198V58.9655V58.911V58.8563V58.8012V58.7459V58.6903V58.6344V58.5783V58.5219V58.4652V58.4083V58.3511V58.2937V58.236V58.1781V58.1199V58.0615V58.0028V57.9439V57.8848V57.8254V57.7657V57.7058V57.6457V57.5854V57.5248V57.464V57.403V57.3418V57.2803V57.2186V57.1567V57.0946V57.0323V56.9697V56.9069V56.844V56.7808V56.7174V56.6539V56.5901V56.5261V56.4619V56.3975V56.333V56.2682V56.2033V56.1382V56.0728V56.0073V55.9417V55.8758V55.8098V55.7436V55.6772V55.6106V55.5439V55.477V55.41V55.3428V55.2754V55.2078V55.1401V55.0723V55.0043V54.9361V54.8678V54.7994V54.7308V54.662V54.5931V54.5241V54.455V54.3857V54.3162V54.2467V54.177V54.1071V54.0372V53.9671V53.8969V53.8266V53.7562V53.6856V53.615V53.5442V53.4733V53.4023V53.3312V53.26V53.1887V53.1173V53.0458V52.9742V52.9025V52.8307V52.7588V52.6869V52.6148V52.5427V52.4704V52.3981V52.3258V52.2533V52.1808V52.1082V52.0355V51.9627V51.8899V51.817V51.7441V51.6711V51.598V51.5249V51.4517V51.3785V51.3052V51.2319V51.1585V51.085V51.0116V50.9381V50.8645V50.7909V50.7173V50.6436V50.5699V50.4962V50.4225V50.3487V50.2749V50.2011V50.1272V50.0534V49.9795V49.9056V49.8317V49.7578V49.6839V49.6099V49.536V49.4621V49.3881V49.3142V49.2403V49.1663V49.0924V49.0185V48.9446V48.8707V48.7968V48.723V48.6492V48.5753V48.5016V48.4278V48.354V48.2803V48.2067V48.133V48.0594V47.9858V47.9123V47.8388V47.7653V47.6919V47.6186V47.5452V47.472V47.3988V47.3256V47.2525V47.1795V47.1065V47.0336V46.9607V46.8879V46.8152V46.7425V46.67V46.5974V46.525V46.4527V46.3804V46.3082V46.2361V46.1641V46.0921V46.0203V45.9485V45.8769V45.8053V45.7338V45.6625V45.5912V45.52V45.449V45.378V45.3072V45.2365V45.1658V45.0953V45.0249V44.9547V44.8845V44.8145V44.7446V44.6748V44.6052V44.5357V44.4663V44.3971V44.3279V44.259V44.1901V44.1215V44.0529V43.9845V43.9163V43.8482V43.7802V43.7124V43.6448V43.5773V43.51V43.4428V43.3759V43.309V43.2424V43.1759V43.1096V43.0434V42.9775V42.9117V42.8461V42.7806V42.7154V42.6503V42.5855V42.5208V42.4563V42.392V42.3279V42.264V42.2003V42.1368V42.0735V42.0104V41.9475V41.8848V41.8224V41.7601V41.6981V41.6363V41.5747V41.5133V41.4521V41.3912V41.3305V41.27V41.2097V41.1497V41.0899V41.0304V40.9711V40.912V40.8532V40.7946V40.7363V40.6782V40.6204V40.5628V40.5055V40.4484V40.3916V40.335V40.2787V40.2227V40.1669V40.1115V40.0562V40.0013V39.9466V39.8922V39.8381V39.7842V39.7307V39.6774V39.6244V39.5717V39.5193V39.4671V39.4153V39.3638V39.3125V39.2616V39.2109V39.1606V39.1106V39.0608V39.0114V38.9623V38.9135V38.8651V38.8169V38.7691V38.7215V38.6743V38.6275V38.5809V38.5347V38.4888V38.4433V38.3994H51.4705Z" fill="white" stroke="#7510F7" stroke-width="5"/>
<mask id="path-4-inside-1" fill="white">
<path d="M14.4468 8.83069V85.1551C16.5183 87.2531 18.7754 89.1653 21.1918 90.8715H78.8082C80.7388 89.5082 82.5673 88.0123 84.2838 86.394H18.9244V13.3082H92.008V77.1266C93.7712 74.4041 95.2754 71.4981 96.4877 68.4449V8.83069H14.4468Z"/>
</mask>
<path d="M14.4468 8.83069V85.1551C16.5183 87.2531 18.7754 89.1653 21.1918 90.8715H78.8082C80.7388 89.5082 82.5673 88.0123 84.2838 86.394H18.9244V13.3082H92.008V77.1266C93.7712 74.4041 95.2754 71.4981 96.4877 68.4449V8.83069H14.4468Z" fill="white"/>
<path d="M14.4468 8.83069V3.83069H9.44684V8.83069H14.4468ZM14.4468 85.1551H9.44684V87.2075L10.8889 88.668L14.4468 85.1551ZM21.1918 90.8715L18.3077 94.9559L19.6044 95.8715H21.1918V90.8715ZM78.8082 90.8715V95.8715H80.3955L81.6922 94.9559L78.8082 90.8715ZM84.2838 86.394L87.7139 90.0319L96.8751 81.394H84.2838V86.394ZM18.9244 86.394H13.9244V91.394H18.9244V86.394ZM18.9244 13.3082V8.30823H13.9244V13.3082H18.9244ZM92.008 13.3082H97.008V8.30823H92.008V13.3082ZM92.008 77.1266H87.008V94.0441L96.2046 79.8447L92.008 77.1266ZM96.4877 68.4449L101.135 70.2901L101.488 69.4013V68.4449H96.4877ZM96.4877 8.83069H101.488V3.83069H96.4877V8.83069ZM9.44684 8.83069V85.1551H19.4468V8.83069H9.44684ZM10.8889 88.668C13.1691 90.9775 15.6518 93.0806 18.3077 94.9559L24.0758 86.7871C21.8989 85.2499 19.8676 83.5288 18.0048 81.6422L10.8889 88.668ZM21.1918 95.8715H78.8082V85.8715H21.1918V95.8715ZM81.6922 94.9559C83.8157 93.4564 85.8266 91.8113 87.7139 90.0319L80.8537 82.7561C79.308 84.2134 77.6619 85.56 75.9241 86.7871L81.6922 94.9559ZM84.2838 81.394H18.9244V91.394H84.2838V81.394ZM23.9244 86.394V13.3082H13.9244V86.394H23.9244ZM18.9244 18.3082H92.008V8.30823H18.9244V18.3082ZM87.008 13.3082V77.1266H97.008V13.3082H87.008ZM96.2046 79.8447C98.1452 76.8485 99.8005 73.6503 101.135 70.2901L91.8406 66.5997C90.7502 69.3459 89.3973 71.9597 87.8113 74.4085L96.2046 79.8447ZM101.488 68.4449V8.83069H91.4877V68.4449H101.488ZM96.4877 3.83069H14.4468V13.8307H96.4877V3.83069Z" fill="#7510F7" mask="url(#path-4-inside-1)"/>
<path d="M22.5918 66.2389C22.5918 69.2392 20.1595 71.6715 17.1592 71.6715C14.1588 71.6715 11.7266 69.2392 11.7266 66.2389C11.7266 63.2385 14.1588 60.8063 17.1592 60.8063C20.1595 60.8063 22.5918 63.2385 22.5918 66.2389Z" fill="white" stroke="#7510F7" stroke-width="5"/>
</svg>
