<svg width="520" height="512" viewBox="0 0 520 512" fill="none" xmlns="http://www.w3.org/2000/svg">
<g clip-path="url(#clip0)" filter="url(#filter0_d)">
<path d="M192.669 400.574V397.074H189.169H34.909C19.799 397.074 7.5 384.775 7.5 369.665V58.846C7.5 43.736 19.799 31.437 34.909 31.437H485.091C500.201 31.437 512.5 43.736 512.498 58.8456V369.666C512.498 384.776 500.198 397.075 485.088 397.075H330.828H327.328V400.575V423.064C327.328 445.614 345.669 463.955 368.219 463.955H402.217C406.802 463.955 410.52 467.672 410.52 472.258C410.52 476.844 406.802 480.561 402.217 480.561H117.781C113.196 480.561 109.478 476.844 109.478 472.258C109.478 467.672 113.196 463.955 117.781 463.955H151.778C174.328 463.955 192.669 445.614 192.669 423.064V400.574ZM197.158 458.307L192.76 463.957H199.92H320.081H327.241L322.843 458.307C315.255 448.56 310.724 436.338 310.724 423.066V400.576V397.076H307.224H212.777H209.277V400.576V423.066C209.277 436.338 204.746 448.559 197.158 458.307ZM27.605 304.133H24.105V307.633V369.666C24.105 375.627 28.9493 380.47 34.909 380.47H485.09C491.051 380.47 495.894 375.626 495.894 369.666V307.633V304.133H492.394H27.605ZM24.106 284.026V287.526H27.606H492.394H492.395H495.895V284.026V58.846C495.895 52.8841 491.049 48.042 485.09 48.042H34.91C28.9487 48.042 24.106 52.8863 24.106 58.846V284.026Z" fill="#7510F7" stroke="black" stroke-width="7"/>
<path d="M269.241 342.305C269.241 347.507 265.105 351.543 260.003 351.543C254.901 351.543 250.765 347.407 250.765 342.305C250.765 337.203 254.901 333.067 260.003 333.067C265.105 333.067 269.241 337.203 269.241 342.305Z" fill="#7510F7" stroke="black" stroke-width="7"/>
<path d="M266.019 111.73C266.019 111.729 266.02 111.729 266.02 111.729C269.265 108.486 274.52 108.487 277.763 111.729C281.006 114.972 281.005 120.23 277.763 123.472L194.349 206.886C192.727 208.508 190.61 209.318 188.478 209.318C186.347 209.318 184.229 208.509 182.605 206.886C179.363 203.642 179.364 198.385 182.606 195.143L266.019 111.73Z" fill="#7510F7" stroke="black" stroke-width="7"/>
<path d="M327.203 160.068L327.203 160.068C323.963 156.827 318.708 156.825 315.461 160.067L327.203 160.068ZM327.203 160.068C330.445 163.31 330.445 168.568 327.203 171.81C327.203 171.81 327.203 171.81 327.203 171.81L293.973 205.038L293.973 205.038C292.351 206.66 290.232 207.47 288.102 207.47C285.971 207.47 283.853 206.66 282.231 205.038C278.989 201.796 278.988 196.538 282.231 193.295C282.231 193.295 282.231 193.295 282.231 193.295L315.46 160.068L327.203 160.068Z" fill="#7510F7" stroke="black" stroke-width="7"/>
</g>
<defs>
<filter id="filter0_d" x="0" y="0" width="519.999" height="519.999" filterUnits="userSpaceOnUse" color-interpolation-filters="sRGB">
<feFlood flood-opacity="0" result="BackgroundImageFix"/>
<feColorMatrix in="SourceAlpha" type="matrix" values="0 0 0 0 0 0 0 0 0 0 0 0 0 0 0 0 0 0 127 0"/>
<feOffset dy="4"/>
<feGaussianBlur stdDeviation="2"/>
<feColorMatrix type="matrix" values="0 0 0 0 0 0 0 0 0 0 0 0 0 0 0 0 0 0 0.25 0"/>
<feBlend mode="normal" in2="BackgroundImageFix" result="effect1_dropShadow"/>
<feBlend mode="normal" in="SourceGraphic" in2="effect1_dropShadow" result="shape"/>
</filter>
<clipPath id="clip0">
<rect width="511.999" height="511.999" fill="white" transform="translate(4)"/>
</clipPath>
</defs>
</svg>
