<svg width="100" height="100" viewBox="0 0 100 100" fill="none" xmlns="http://www.w3.org/2000/svg">
<rect width="100" height="100" fill="white"/>
<path d="M97.3023 54.3505L97.3016 54.3585C97.2012 55.4884 97.058 56.6062 96.876 57.7126L96.8754 57.7158C93.1921 80.279 73.6041 97.5 50 97.5C37.9739 97.5 26.9988 93.0351 18.6296 85.6664L18.6287 85.6656C15.5357 82.9449 12.7995 79.8267 10.5001 76.3911L10.4997 76.3906C5.44636 68.8446 2.5 59.7694 2.5 50C2.5 23.7665 23.7665 2.5 50 2.5C76.2335 2.5 97.5 23.7665 97.5 50C97.5 51.47 97.434 52.9201 97.3023 54.3505Z" stroke="#7510F7" stroke-width="5"/>
<mask id="path-2-inside-1" fill="white">
<path d="M87.2592 55.6592C85.7428 56.2326 85.8041 56.2428 85.002 54.7816C83.9775 52.9205 83.4326 50.9633 83.3856 48.8348C83.3467 47.0082 83.8467 45.3103 84.4754 43.6449C84.9773 42.3205 84.3244 41.8531 83.1774 41.7326C82.3426 41.6469 81.4815 41.6551 80.6447 41.7408C78.4691 41.9633 78.2549 42.151 77.6774 44.2633C77.3346 45.5164 77.0609 46.7797 76.4916 47.9693C75.0875 50.8979 73.4916 53.7184 71.8549 56.5184C71.5609 57.0225 71.3182 57.5652 70.9039 57.9959C69.7182 56.2203 69.2713 54.2592 69.1713 52.2019C69.0713 50.1713 69.6938 48.2836 70.3773 46.4162C70.608 45.7877 70.4162 45.3978 69.8733 45.1264C69.6324 45.0061 69.3631 44.8937 69.0998 44.8732C67.7039 44.7631 66.3121 44.7793 64.9508 45.1609C64.3385 45.3303 63.9385 45.6732 63.8018 46.3609C63.5365 47.7059 63.1223 49.0119 62.5629 50.2691C61.0119 53.7508 59.4711 57.2385 57.9221 60.7223C56.5752 63.7488 55.2486 66.7834 53.6527 69.6896C53.5404 69.8957 53.4467 70.2529 53.165 70.1814C52.8793 70.11 52.9793 69.759 52.967 69.5182C52.8752 67.8039 53.3426 66.1691 53.7404 64.5324C54.3711 61.9426 55.0607 59.365 55.7303 56.7834C55.9221 56.0426 55.5996 55.5445 54.9854 55.1895C54.1018 54.6812 53.2221 54.6568 52.265 55.3689C52.3957 54.3158 52.4527 53.3914 52.4078 52.467C52.3059 50.4059 51.3506 49.065 49.6875 48.7547C48.4732 48.5281 47.3242 48.8812 46.2385 49.3955C43.7078 50.5936 41.6732 52.3996 39.9629 54.5914C39.7629 54.8465 39.5609 55.0812 39.2711 55.2383C36.0609 56.9873 32.8527 58.7363 29.6508 60.5016C29.2998 60.6975 29.0732 60.6424 28.8201 60.3709C27.2078 58.6424 25.3365 57.2158 23.4834 55.7689C20.8936 53.7445 18.2141 51.8262 15.9793 49.3853C14.6732 47.9568 13.5834 46.3914 13.0385 44.5018C12.1486 41.4119 12.8141 38.5344 14.2957 35.7998C16.0488 32.565 18.6488 30.0672 21.516 27.8426C26.0691 24.3119 31.0629 21.5078 36.3262 19.1998C42.2201 16.6182 48.3344 14.9549 54.8465 15.2059C57.4262 15.3059 59.9301 15.7527 62.2281 17.016C63.8547 17.91 64.9322 19.2018 65.2363 21.0976C65.5936 23.318 65.0607 25.3691 64.0752 27.3141C61.8732 31.659 58.3732 34.7365 54.2363 37.1467C50.7914 39.1527 47.0752 40.4264 43.1424 41.0936C40.969 41.4629 38.7873 41.6853 36.6016 41.3527C34.0934 40.9711 31.775 40.1324 30.0588 38.1119C29.8607 37.8793 29.6098 37.718 29.2731 37.8812C28.9281 38.0486 28.9547 38.3547 28.9873 38.6486C29.0117 38.8506 29.067 39.0547 29.1383 39.2467C29.5975 40.4855 30.4566 41.4201 31.4627 42.2365C34.0791 44.365 37.1791 44.9896 40.4342 45.0529C43.6199 45.1162 46.7566 44.7121 49.8607 43.9693C56.8627 42.2959 62.7281 38.8611 67.0098 32.9754C69.569 29.457 71.1895 25.5795 71.0465 21.1428C70.9547 18.3285 70.0076 15.8428 67.9566 13.8225C65.5178 11.4244 62.4914 10.2184 59.2443 9.49394C55.6279 8.68984 51.975 8.57558 48.2852 9.0164C45.075 9.39999 41.9383 10.0572 38.8852 11.1082C34.2137 12.7184 29.7016 14.6959 25.3832 17.1C20.9588 19.5611 16.7893 22.3797 13.1322 25.9102C9.89551 29.0346 7.11387 32.4816 5.54649 36.7611C4.87715 38.5937 4.39551 40.4775 4.84454 42.4592C5.42012 45.0102 6.67715 47.2184 8.33028 49.2102C10.8303 52.2266 13.8977 54.602 17.0609 56.8713C19.6018 58.6957 22.2609 60.357 24.7018 62.3182C25.3936 62.8732 25.3895 62.8732 24.5752 63.2998C23.6242 63.7957 22.6629 64.2732 21.7283 64.8018C17.9592 66.9326 14.3164 69.2428 11.3428 72.4531C9.8795 74.0348 8.88555 75.8103 8.42247 77.7816C10.8428 81.398 13.7225 84.6797 16.9775 87.5428C22.5307 87.1102 26.7816 84.2203 29.9225 79.4408C31.4389 77.1326 32.149 74.5205 32.4164 71.7652C32.6512 69.3367 32.4041 66.9855 31.6898 64.6672C31.5654 64.259 31.1022 63.8529 31.2838 63.4937C31.4531 63.1631 31.9635 62.9957 32.3389 62.7795C33.8531 61.8998 35.3715 61.0326 36.9307 60.1367C36.9981 60.4715 36.8674 60.6674 36.8104 60.8795C35.9164 64.1592 35.2939 67.4652 35.9736 70.8734C36.3961 72.9959 37.1002 74.9937 38.4389 76.751C39.8164 78.5592 42.892 78.3529 44.1408 76.702C45.3266 75.1346 46.1123 73.3672 46.9307 71.608C47.3797 70.6447 47.7918 69.6652 48.2205 68.6916C48.1408 69.8631 48.1449 71.0059 48.1879 72.1447C48.2307 73.2672 48.4104 74.3754 48.9939 75.3672C49.6959 76.559 51.0164 76.9061 52.243 76.2691C53.5369 75.5976 54.4186 74.4916 55.1041 73.2916C58.0449 68.1305 60.7734 62.859 63.0326 57.3549C63.5143 56.1855 64.0082 55.0182 64.5531 53.7182C64.6367 54.1447 64.692 54.4059 64.743 54.6672C65.2449 57.2896 66.1389 59.7713 67.4328 62.1039C67.7104 62.6039 67.6797 62.9488 67.3287 63.4283C66.1369 65.0508 64.8307 66.5773 63.543 68.1201C62.4613 69.4182 61.3041 70.659 60.3899 72.0875C59.5695 73.3732 60.0408 74.6894 61.4063 74.9814C61.8266 75.0713 62.2695 75.0978 62.7002 75.0916C65.0859 75.0631 67.2879 74.3508 69.3391 73.1834C72.1002 71.61 73.7371 69.3037 73.6615 66.0201C73.6268 64.5262 73.2227 63.0916 72.6207 61.7221C72.4881 61.418 72.4818 61.1976 72.6799 60.9119C74.5922 58.173 76.2818 55.3018 77.835 52.3467C78.1106 51.8264 78.3043 51.2486 78.7492 50.7406C78.8084 50.9467 78.8553 51.0754 78.8818 51.208C79.3758 53.657 80.041 56.0508 81.29 58.2365C81.6328 58.8346 81.4615 59.1385 80.9881 59.5385C79.3574 60.9242 77.982 62.5404 76.9024 64.3916C76.0615 65.8324 75.4859 67.3711 75.4922 69.059C75.4982 70.9365 76.935 72.0426 78.7656 71.6018C80.6738 71.1445 82.4432 70.367 84.0309 69.2059C87.49 66.6732 88.5043 64.0018 87.4207 60.2732C86.9963 58.8059 87.0043 58.8305 88.4758 58.3855C91.6941 57.4141 94.9594 57.3732 98.241 57.908C98.6125 57.9691 98.9799 58.0387 99.343 58.1182C99.5348 56.9529 99.6857 55.7732 99.792 54.5793C95.5939 53.5531 91.402 54.0857 87.2592 55.6592ZM19.2551 81.9143C18.3225 82.2449 17.3531 82.3857 16.3611 82.3082C15.1264 82.2102 14.3428 81.3389 14.2631 80.0285C14.1732 78.5184 14.6203 77.1551 15.2814 75.8285C16.4834 73.4203 18.5018 71.7857 20.5611 70.1816C22.5631 68.6205 24.7143 67.2877 26.8897 65.9918C27.5488 65.6 27.559 65.6041 27.71 66.3898C27.9059 67.398 28.0814 68.4082 28.016 69.3246C28.1877 74.8203 24.1959 80.1652 19.2551 81.9143ZM49.2102 54.202C48.8633 56.5184 48.1061 58.7244 47.3 60.9039C46.202 63.8795 45.1326 66.8691 43.751 69.7305C43.4346 70.3896 43.102 71.0447 42.5898 71.5814C42.1063 72.0896 41.6775 72.0305 41.343 71.41C40.6898 70.1977 40.7715 68.8488 40.6654 67.8691C40.6961 62.9549 42.3451 58.9385 45.0613 55.3283C45.8205 54.3223 46.7898 53.5039 48.0736 53.1752C48.9449 52.9531 49.3469 53.3041 49.2102 54.202ZM68.2307 68.751C67.3 70.3592 65.9592 71.5285 64.3143 72.3611C64.1387 72.4488 63.9123 72.6039 63.7531 72.3978C63.6022 72.2039 63.8449 72.0754 63.9551 71.9529C65.5899 70.1672 67.2041 68.3672 68.6592 66.4305C68.6816 66.3998 68.7367 66.3957 68.8611 66.3428C68.8469 67.2389 68.651 68.0266 68.2307 68.751ZM79.5184 68.6816C79.2756 68.7959 78.9939 69.0102 78.7572 68.8266C78.4961 68.6246 78.6 68.2674 78.6797 67.9939C79.0512 66.7471 79.5512 65.5531 80.2408 64.4408C80.8203 63.5041 81.5389 62.6857 82.3285 61.9225C82.6469 61.6164 82.7897 61.6531 82.8979 62.0939C83.0102 62.5449 83.0203 62.9959 83.0285 63.4551C83.0082 65.9674 81.7326 67.6389 79.5184 68.6816Z"/>
</mask>
<path d="M87.2592 55.6592C85.7428 56.2326 85.8041 56.2428 85.002 54.7816C83.9775 52.9205 83.4326 50.9633 83.3856 48.8348C83.3467 47.0082 83.8467 45.3103 84.4754 43.6449C84.9773 42.3205 84.3244 41.8531 83.1774 41.7326C82.3426 41.6469 81.4815 41.6551 80.6447 41.7408C78.4691 41.9633 78.2549 42.151 77.6774 44.2633C77.3346 45.5164 77.0609 46.7797 76.4916 47.9693C75.0875 50.8979 73.4916 53.7184 71.8549 56.5184C71.5609 57.0225 71.3182 57.5652 70.9039 57.9959C69.7182 56.2203 69.2713 54.2592 69.1713 52.2019C69.0713 50.1713 69.6938 48.2836 70.3773 46.4162C70.608 45.7877 70.4162 45.3978 69.8733 45.1264C69.6324 45.0061 69.3631 44.8937 69.0998 44.8732C67.7039 44.7631 66.3121 44.7793 64.9508 45.1609C64.3385 45.3303 63.9385 45.6732 63.8018 46.3609C63.5365 47.7059 63.1223 49.0119 62.5629 50.2691C61.0119 53.7508 59.4711 57.2385 57.9221 60.7223C56.5752 63.7488 55.2486 66.7834 53.6527 69.6896C53.5404 69.8957 53.4467 70.2529 53.165 70.1814C52.8793 70.11 52.9793 69.759 52.967 69.5182C52.8752 67.8039 53.3426 66.1691 53.7404 64.5324C54.3711 61.9426 55.0607 59.365 55.7303 56.7834C55.9221 56.0426 55.5996 55.5445 54.9854 55.1895C54.1018 54.6812 53.2221 54.6568 52.265 55.3689C52.3957 54.3158 52.4527 53.3914 52.4078 52.467C52.3059 50.4059 51.3506 49.065 49.6875 48.7547C48.4732 48.5281 47.3242 48.8812 46.2385 49.3955C43.7078 50.5936 41.6732 52.3996 39.9629 54.5914C39.7629 54.8465 39.5609 55.0812 39.2711 55.2383C36.0609 56.9873 32.8527 58.7363 29.6508 60.5016C29.2998 60.6975 29.0732 60.6424 28.8201 60.3709C27.2078 58.6424 25.3365 57.2158 23.4834 55.7689C20.8936 53.7445 18.2141 51.8262 15.9793 49.3853C14.6732 47.9568 13.5834 46.3914 13.0385 44.5018C12.1486 41.4119 12.8141 38.5344 14.2957 35.7998C16.0488 32.565 18.6488 30.0672 21.516 27.8426C26.0691 24.3119 31.0629 21.5078 36.3262 19.1998C42.2201 16.6182 48.3344 14.9549 54.8465 15.2059C57.4262 15.3059 59.9301 15.7527 62.2281 17.016C63.8547 17.91 64.9322 19.2018 65.2363 21.0976C65.5936 23.318 65.0607 25.3691 64.0752 27.3141C61.8732 31.659 58.3732 34.7365 54.2363 37.1467C50.7914 39.1527 47.0752 40.4264 43.1424 41.0936C40.969 41.4629 38.7873 41.6853 36.6016 41.3527C34.0934 40.9711 31.775 40.1324 30.0588 38.1119C29.8607 37.8793 29.6098 37.718 29.2731 37.8812C28.9281 38.0486 28.9547 38.3547 28.9873 38.6486C29.0117 38.8506 29.067 39.0547 29.1383 39.2467C29.5975 40.4855 30.4566 41.4201 31.4627 42.2365C34.0791 44.365 37.1791 44.9896 40.4342 45.0529C43.6199 45.1162 46.7566 44.7121 49.8607 43.9693C56.8627 42.2959 62.7281 38.8611 67.0098 32.9754C69.569 29.457 71.1895 25.5795 71.0465 21.1428C70.9547 18.3285 70.0076 15.8428 67.9566 13.8225C65.5178 11.4244 62.4914 10.2184 59.2443 9.49394C55.6279 8.68984 51.975 8.57558 48.2852 9.0164C45.075 9.39999 41.9383 10.0572 38.8852 11.1082C34.2137 12.7184 29.7016 14.6959 25.3832 17.1C20.9588 19.5611 16.7893 22.3797 13.1322 25.9102C9.89551 29.0346 7.11387 32.4816 5.54649 36.7611C4.87715 38.5937 4.39551 40.4775 4.84454 42.4592C5.42012 45.0102 6.67715 47.2184 8.33028 49.2102C10.8303 52.2266 13.8977 54.602 17.0609 56.8713C19.6018 58.6957 22.2609 60.357 24.7018 62.3182C25.3936 62.8732 25.3895 62.8732 24.5752 63.2998C23.6242 63.7957 22.6629 64.2732 21.7283 64.8018C17.9592 66.9326 14.3164 69.2428 11.3428 72.4531C9.8795 74.0348 8.88555 75.8103 8.42247 77.7816C10.8428 81.398 13.7225 84.6797 16.9775 87.5428C22.5307 87.1102 26.7816 84.2203 29.9225 79.4408C31.4389 77.1326 32.149 74.5205 32.4164 71.7652C32.6512 69.3367 32.4041 66.9855 31.6898 64.6672C31.5654 64.259 31.1022 63.8529 31.2838 63.4937C31.4531 63.1631 31.9635 62.9957 32.3389 62.7795C33.8531 61.8998 35.3715 61.0326 36.9307 60.1367C36.9981 60.4715 36.8674 60.6674 36.8104 60.8795C35.9164 64.1592 35.2939 67.4652 35.9736 70.8734C36.3961 72.9959 37.1002 74.9937 38.4389 76.751C39.8164 78.5592 42.892 78.3529 44.1408 76.702C45.3266 75.1346 46.1123 73.3672 46.9307 71.608C47.3797 70.6447 47.7918 69.6652 48.2205 68.6916C48.1408 69.8631 48.1449 71.0059 48.1879 72.1447C48.2307 73.2672 48.4104 74.3754 48.9939 75.3672C49.6959 76.559 51.0164 76.9061 52.243 76.2691C53.5369 75.5976 54.4186 74.4916 55.1041 73.2916C58.0449 68.1305 60.7734 62.859 63.0326 57.3549C63.5143 56.1855 64.0082 55.0182 64.5531 53.7182C64.6367 54.1447 64.692 54.4059 64.743 54.6672C65.2449 57.2896 66.1389 59.7713 67.4328 62.1039C67.7104 62.6039 67.6797 62.9488 67.3287 63.4283C66.1369 65.0508 64.8307 66.5773 63.543 68.1201C62.4613 69.4182 61.3041 70.659 60.3899 72.0875C59.5695 73.3732 60.0408 74.6894 61.4063 74.9814C61.8266 75.0713 62.2695 75.0978 62.7002 75.0916C65.0859 75.0631 67.2879 74.3508 69.3391 73.1834C72.1002 71.61 73.7371 69.3037 73.6615 66.0201C73.6268 64.5262 73.2227 63.0916 72.6207 61.7221C72.4881 61.418 72.4818 61.1976 72.6799 60.9119C74.5922 58.173 76.2818 55.3018 77.835 52.3467C78.1106 51.8264 78.3043 51.2486 78.7492 50.7406C78.8084 50.9467 78.8553 51.0754 78.8818 51.208C79.3758 53.657 80.041 56.0508 81.29 58.2365C81.6328 58.8346 81.4615 59.1385 80.9881 59.5385C79.3574 60.9242 77.982 62.5404 76.9024 64.3916C76.0615 65.8324 75.4859 67.3711 75.4922 69.059C75.4982 70.9365 76.935 72.0426 78.7656 71.6018C80.6738 71.1445 82.4432 70.367 84.0309 69.2059C87.49 66.6732 88.5043 64.0018 87.4207 60.2732C86.9963 58.8059 87.0043 58.8305 88.4758 58.3855C91.6941 57.4141 94.9594 57.3732 98.241 57.908C98.6125 57.9691 98.9799 58.0387 99.343 58.1182C99.5348 56.9529 99.6857 55.7732 99.792 54.5793C95.5939 53.5531 91.402 54.0857 87.2592 55.6592ZM19.2551 81.9143C18.3225 82.2449 17.3531 82.3857 16.3611 82.3082C15.1264 82.2102 14.3428 81.3389 14.2631 80.0285C14.1732 78.5184 14.6203 77.1551 15.2814 75.8285C16.4834 73.4203 18.5018 71.7857 20.5611 70.1816C22.5631 68.6205 24.7143 67.2877 26.8897 65.9918C27.5488 65.6 27.559 65.6041 27.71 66.3898C27.9059 67.398 28.0814 68.4082 28.016 69.3246C28.1877 74.8203 24.1959 80.1652 19.2551 81.9143ZM49.2102 54.202C48.8633 56.5184 48.1061 58.7244 47.3 60.9039C46.202 63.8795 45.1326 66.8691 43.751 69.7305C43.4346 70.3896 43.102 71.0447 42.5898 71.5814C42.1063 72.0896 41.6775 72.0305 41.343 71.41C40.6898 70.1977 40.7715 68.8488 40.6654 67.8691C40.6961 62.9549 42.3451 58.9385 45.0613 55.3283C45.8205 54.3223 46.7898 53.5039 48.0736 53.1752C48.9449 52.9531 49.3469 53.3041 49.2102 54.202ZM68.2307 68.751C67.3 70.3592 65.9592 71.5285 64.3143 72.3611C64.1387 72.4488 63.9123 72.6039 63.7531 72.3978C63.6022 72.2039 63.8449 72.0754 63.9551 71.9529C65.5899 70.1672 67.2041 68.3672 68.6592 66.4305C68.6816 66.3998 68.7367 66.3957 68.8611 66.3428C68.8469 67.2389 68.651 68.0266 68.2307 68.751ZM79.5184 68.6816C79.2756 68.7959 78.9939 69.0102 78.7572 68.8266C78.4961 68.6246 78.6 68.2674 78.6797 67.9939C79.0512 66.7471 79.5512 65.5531 80.2408 64.4408C80.8203 63.5041 81.5389 62.6857 82.3285 61.9225C82.6469 61.6164 82.7897 61.6531 82.8979 62.0939C83.0102 62.5449 83.0203 62.9959 83.0285 63.4551C83.0082 65.9674 81.7326 67.6389 79.5184 68.6816Z" stroke="#7510F7" stroke-width="10" mask="url(#path-2-inside-1)"/>
</svg>
